<svg version="1" xmlns="http://www.w3.org/2000/svg" width="400" height="400" viewBox="0 0 300.000000 300.000000"><path d="M0 150v150h300V0H0v150zm53-55v8H37v84h16v15H20V87h33v8zm225 49.5V202h-33v-15h16v-84h-16V87h33v57.5zm-65.9-49.9c7.9 2.4 13.9 5.7 19.4 10.7l4.9 4.4-5.2 6c-8 9.3-7.7 9.2-12 5-5.4-5.3-11.4-7.7-19.2-7.6-10.9 0-18.7 4.2-23.8 12.8-2.4 4.1-2.7 5.6-2.7 13.6 0 7.3.4 9.8 2.2 13.1 8.4 15.8 29 18.7 43 6.1l3.9-3.6 6.8 6.8 6.7 6.8-5.5 5.1c-9.1 8.3-19.1 12.1-31.6 12.2-16.5 0-29.6-6.4-39.3-19.2-5.7-7.7-8-16.5-7.5-29.6.3-9.5.7-11.4 3.6-17.5 5.6-12 17.1-21.7 30-25.2 6.7-1.9 19.8-1.8 26.3.1zm-91.9 3.3c12.5 4.8 18.3 18.7 12.9 30.7-1.8 3.9-6.6 8.4-9 8.4-2.3 0-1 1.9 1.8 2.5 4.4.9 10.7 6.9 12.7 12 3.6 9.5-.3 22.7-8.4 28-6.5 4.2-12 5-37.2 5H69.5l-.3-44.9-.2-44.8 22.7.4c20.4.4 23.4.7 28.5 2.7z"/><path d="M89 122v10h5.9c8.8 0 16.3-1.7 18.4-4.1 1.9-2.4 2.3-8 .6-11.1-1.7-3.2-7.1-4.8-16.4-4.8H89v10zM89 157.4V168h9.8c16 0 21.2-2.6 21.2-10.4-.1-7.9-3.6-9.8-19.2-10.4l-11.8-.4v10.6z"/></svg>